HIERARCHY
ROOT Hips
{
  OFFSET 3.13124 94.3669 -3.18751
  CHANNELS  6 Xposition Yposition Zposition Zrotation Xrotation Yrotation
  JOINT LeftUpLeg
  {
    OFFSET 8.64259 1.95398 -2.38835
    CHANNELS 3 Zrotation Xrotation Yrotation
    JOINT LeftLeg
    {
      OFFSET 43.7702 0 0
      CHANNELS 3 Zrotation Xrotation Yrotation
      JOINT LeftFoot
      {
        OFFSET 40.6238 0 0
        CHANNELS 3 Zrotation Xrotation Yrotation
        JOINT LeftToeBase
        {
          OFFSET 12.7242 0 0
          CHANNELS 3 Zrotation Xrotation Yrotation
          End Site
          {
            OFFSET 0 0 0
          }
        }
      }
    }
  }
  JOINT RightUpLeg
  {
    OFFSET -8.2249 1.95398 -2.59336
    CHANNELS 3 Zrotation Xrotation Yrotation
    JOINT RightLeg
    {
      OFFSET 43.5653 0 0
      CHANNELS 3 Zrotation Xrotation Yrotation
      JOINT RightFoot
      {
        OFFSET 40.6238 0 0
        CHANNELS 3 Zrotation Xrotation Yrotation
        JOINT RightToeBase
        {
          OFFSET 12.7242 0 0
          CHANNELS 3 Zrotation Xrotation Yrotation
          End Site
          {
            OFFSET 0 0 0
          }
        }
      }
    }
  }
  JOINT Spine
  {
    OFFSET 0.165834 0.87714 6.61349
    CHANNELS 3 Zrotation Xrotation Yrotation
    JOINT Spine1
    {
      OFFSET 7.38962 1.71661e-005 0
      CHANNELS 3 Zrotation Xrotation Yrotation
      JOINT Spine2
      {
        OFFSET 11.9445 1.14441e-005 0
        CHANNELS 3 Zrotation Xrotation Yrotation
        JOINT Spine3
        {
          OFFSET 14.7254 4.19617e-005 0
          CHANNELS 3 Zrotation Xrotation Yrotation
          JOINT Spine4
          {
            OFFSET 10.9679 0 0
            CHANNELS 3 Zrotation Xrotation Yrotation
            JOINT RightShoulder
            {
              OFFSET 2.46616 -1.6653 3.69651
              CHANNELS 3 Zrotation Xrotation Yrotation
              JOINT RightArm
              {
                OFFSET 13.0012 0 0
                CHANNELS 3 Zrotation Xrotation Yrotation
                JOINT RightForeArm
                {
                  OFFSET 28.7848 1.52588e-005 0
                  CHANNELS 3 Zrotation Xrotation Yrotation
                  JOINT RightHand
                  {
                    OFFSET 26.5688 1.52588e-005 0
                    CHANNELS 3 Zrotation Xrotation Yrotation
                    End Site
                    {
                      OFFSET 0 0 0
                    }
                  }
                }
              }
            }
            JOINT LeftShoulder
            {
              OFFSET 2.38034 -1.29275 -3.75231
              CHANNELS 3 Zrotation Xrotation Yrotation
              JOINT LeftArm
              {
                OFFSET 16.3182 6.10352e-005 0
                CHANNELS 3 Zrotation Xrotation Yrotation
                JOINT LeftForeArm
                {
                  OFFSET 27.0901 0 0
                  CHANNELS 3 Zrotation Xrotation Yrotation
                  JOINT LeftHand
                  {
                    OFFSET 24.5451 1.52588e-005 0
                    CHANNELS 3 Zrotation Xrotation Yrotation
                    End Site
                    {
                      OFFSET 0 0 0
                    }
                  }
                }
              }
            }
            JOINT Neck
            {
              OFFSET 5.0226 -0.0266342 0
              CHANNELS 3 Zrotation Xrotation Yrotation
              JOINT Head
              {
                OFFSET 6.69363 2.86102e-005 0
                CHANNELS 3 Zrotation Xrotation Yrotation
                End Site
                {
                  OFFSET 0 0 0
                }
              }
            }
          }
        }
      }
    }
  }
}
MOTION
Frames:	17
Frame Time:	0.0333333
-0.968037 96.8198 -16.9962 -4.37718 -89.9974 -4.38345 -171.188 3.10228 90.8403 -9.87589 8.46931 2.79374 63.8635 0.801766 0.387028 28.7808 4.97299e-006 6.74399e-006 168.378 2.802 91.3817 -10.1291 -11.2277 -2.39665 63.9353 -0.999283 -0.50824 28.7808 1.41834e-005 2.4065e-005 -0.000513304 6.343 -89.9939 14.1935 5.45808e-007 -1.59271e-006 2.52251 6.16757e-006 1.0666e-006 -20.0126 -2.39022e-006 0.0070683 1.59028e-015 -1.94126e-019 0.00707137 100.92 -18.9053 -85.2344 -0.527478 37.9419 -21.7059 5.82514 0.224686 -8.70364 -5.37983 -0.320018 -0.0162402 -78.9767 -21.8574 94.3494 8.32098 -36.0643 -14.2764 1.49791 36.7733 -11.0256 -0.42259 0.0324654 3.1974 1.76621 -0.00263529 -0.00156562 -7.4199 -0.00023366 -0.00101548 
-0.974529 96.8247 -16.9907 -3.03905 -89.9629 -3.0435 -171.194 3.14689 90.8461 -9.88752 8.41366 2.77808 63.823 0.701579 0.329121 28.7808 4.97299e-006 6.74399e-006 168.459 2.84228 91.4423 -10.1418 -11.1123 -2.47478 63.8679 -1.07462 -0.549776 28.7808 1.41834e-005 2.4065e-005 -0.000155034 6.343 -89.998 14.1935 3.19271e-005 -3.30225e-005 2.52251 3.53177e-005 -3.26497e-005 -20.0126 3.69603e-005 0.0070683 -4.82009e-009 3.90548e-005 0.00707137 100.975 -18.8707 -85.1202 -0.541608 38.0597 -21.7793 5.75381 0.224698 -8.6838 -5.37983 -0.320018 -0.0162402 -78.9343 -21.9146 94.4167 8.25978 -36.2207 -14.4525 1.55446 36.7626 -10.9167 -0.47664 0.0333847 3.0742 1.94814 -0.0434585 -0.0305987 -7.54502 -0.00234917 -0.0149755 
-0.987146 96.8093 -16.9881 -118.959 -89.9613 -119.009 -171.177 3.21265 90.8118 -10.1785 8.38774 2.79155 63.9465 0.6718 0.309229 28.7808 4.97299e-006 6.74399e-006 168.445 2.64918 91.3658 -9.88074 -11.0702 -2.45531 64.1653 -0.626862 -0.305481 28.7808 1.41834e-005 2.4065e-005 -0.00518449 6.34271 -89.9393 14.1931 -0.000608762 0.00065214 2.52217 -0.000586227 0.000666449 -20.013 -0.000780095 0.0070683 -0.000339231 -0.000782342 0.00707137 100.958 -18.8361 -85.0752 -0.582039 38.1336 -21.8021 5.72018 0.22471 -8.66338 -5.37983 -0.320018 -0.0162402 -78.9808 -21.9027 94.3834 8.43357 -36.2272 -14.2989 1.56058 36.8929 -10.9983 -0.318459 0.0468661 3.28359 1.88223 -0.0571714 -0.125292 -7.41053 0.0216674 0.0108172 
-0.989855 96.8292 -16.9929 -82.1996 -89.9161 -82.2123 -171.178 3.13911 90.8535 -9.94622 8.36401 2.78765 63.8306 0.648212 0.297483 28.7808 4.97299e-006 6.74399e-006 168.463 2.78698 91.4325 -10.0859 -11.2739 -2.50586 63.9034 -0.950439 -0.480885 28.7808 1.41834e-005 2.4065e-005 -0.0124022 6.34312 -89.9714 14.1877 -0.0174389 0.017863 2.5167 -0.0166331 0.0186073 -20.0185 -0.0219987 0.0070683 -0.00580894 -0.0219996 0.00707137 100.984 -18.8714 -85.0736 -0.549907 38.1895 -21.9138 5.67642 0.224713 -8.66611 -5.37983 -0.320018 -0.0162402 -78.8933 -21.8271 94.5373 8.47235 -36.2912 -14.3306 1.62567 37.0524 -10.9841 -0.362928 0.0427996 3.2212 2.12621 -0.00164404 -0.291569 -7.58731 0.0416877 0.109595 
-0.989858 96.8278 -17.0032 -89.4959 -89.8545 -89.4923 -171.196 3.10222 90.8598 -9.88881 8.26119 2.78191 63.8241 0.670134 0.311123 28.7808 4.97299e-006 6.74399e-006 168.468 2.82781 91.4528 -10.1703 -11.3177 -2.52083 63.8768 -0.960623 -0.485196 28.7808 1.41834e-005 2.4065e-005 -0.0120404 6.34643 -89.9881 14.181 -0.019636 0.0156481 2.5101 -0.0189329 0.0164807 -20.0251 -0.0234639 0.0070683 -0.0124162 -0.0234666 0.00707137 100.977 -18.8185 -85.0765 -0.521582 38.2302 -21.9588 5.63894 0.224775 -8.66698 -5.37983 -0.320018 -0.0162402 -78.8849 -21.823 94.5683 8.52088 -36.3184 -14.2984 1.65057 37.019 -11.0033 -0.442012 0.0369491 3.18521 2.2592 -0.00999713 -0.281731 -7.6859 0.0456235 0.0791601 
-0.997214 96.8005 -17.017 -107.138 -89.7829 -107.173 -171.169 3.20442 90.8284 -10.2551 8.19586 2.78577 63.9932 0.661359 0.302794 28.7808 4.97299e-006 6.74399e-006 168.474 2.59967 91.3804 -9.83217 -11.2843 -2.51955 64.2156 -0.460591 -0.21404 28.7808 1.41834e-005 2.4065e-005 -0.017454 6.35292 -89.917 14.1682 -0.0170098 0.0130714 2.49726 -0.016441 0.013764 -20.0379 -0.0212321 0.0070683 -0.0252468 -0.0212346 0.00707137 100.919 -18.8472 -85.2266 -0.620387 38.2799 -21.8177 5.62293 0.224847 -8.63278 -5.37983 -0.320018 -0.0162402 -78.9104 -21.7941 94.5068 8.58808 -36.3341 -14.2283 1.59185 36.9278 -11.0009 -0.230331 0.0527712 3.2842 2.11622 -0.0208452 -0.35545 -7.486 0.0357827 0.0869206 
-0.982994 96.8521 -17.0329 -102.28 -89.7457 -102.206 -171.179 2.97137 90.9265 -9.70899 8.28257 2.79999 63.7929 0.841251 0.411671 28.7808 4.97299e-006 6.74399e-006 168.446 2.88458 91.5115 -10.3208 -11.1135 -2.43319 63.6998 -0.959606 -0.478331 28.7808 1.41834e-005 2.4065e-005 -0.00442959 6.35602 -90.0333 14.1711 -0.0120981 0.011357 2.50015 -0.0116836 0.0118955 -20.035 -0.0175618 0.00715685 -0.0223535 -0.0175635 0.00715978 100.878 -18.8007 -85.3107 -0.574405 38.334 -21.7404 5.55035 0.224911 -8.60597 -5.37983 -0.320018 -0.0162402 -78.9189 -21.7888 94.5043 8.54904 -36.3012 -14.3087 1.59077 36.9928 -10.9993 -0.285394 0.0475369 3.19201 2.15816 -0.0463977 -0.303191 -7.58163 0.0109272 0.011797 
-0.975792 96.8283 -17.0512 -99.3254 -89.6979 -99.3158 -171.18 3.1117 90.8657 -9.98827 8.15921 2.77963 63.8491 0.603826 0.272004 28.7808 4.97299e-006 6.74399e-006 168.47 2.77087 91.4404 -10.0718 -11.4095 -2.51823 63.888 -0.854933 -0.427215 28.7808 1.41834e-005 2.4065e-005 -0.00988218 6.35698 -89.9636 14.1613 -0.00798568 0.0117458 2.49036 -0.00780873 0.0122639 -20.0448 -0.0153492 0.00757522 -0.032149 -0.015351 0.00757511 100.91 -18.8521 -85.2654 -0.572779 38.266 -21.8255 5.61392 0.224956 -8.62286 -5.37983 -0.320018 -0.0162402 -78.8904 -21.7546 94.5367 8.45156 -36.2914 -14.4079 1.63182 36.9894 -11.033 -0.34405 0.0451317 3.24553 2.25251 -0.0285971 -0.30656 -7.71932 0.0195047 0.00506652 
-0.967344 96.8091 -17.0694 -104.425 -89.6611 -104.451 -171.178 3.15822 90.8232 -10.1673 8.15203 2.78024 63.9676 0.796437 0.380281 28.7808 4.97299e-006 6.74399e-006 168.451 2.65032 91.3763 -9.87796 -11.3556 -2.49389 64.1181 -0.566008 -0.270974 28.7808 1.41834e-005 2.4065e-005 -0.00868293 6.35665 -89.9335 14.1609 -0.00778287 -0.00512249 2.48993 -0.00799173 -0.00477774 -20.0452 -0.0155691 -0.00721055 -0.0325839 -0.0155731 -0.00722236 100.899 -18.7446 -85.2859 -0.443818 38.2875 -21.8851 5.55127 0.225055 -8.57564 -5.37983 -0.320018 -0.0162402 -78.9499 -21.8166 94.419 8.47472 -36.2399 -14.3305 1.52834 36.7333 -11.0491 -0.196432 0.0429737 3.28623 2.12594 -0.0168477 -0.189479 -7.634 0.0139522 0.00147697 
-0.953238 96.8317 -17.0882 -94.9952 -89.6663 -94.9787 -171.19 3.16283 90.8522 -10.0151 8.09573 2.76862 63.8366 0.639656 0.291152 28.7808 4.97299e-006 6.74399e-006 168.472 2.79506 91.4384 -10.024 -11.4312 -2.51654 63.861 -0.816153 -0.405397 28.7808 1.41834e-005 2.4065e-005 -0.00833438 6.35637 -89.9718 14.1709 -0.0157484 -0.0211299 2.49999 -0.0166645 -0.0204202 -20.0352 -0.0169746 -0.0248855 -0.0225175 -0.0169817 -0.0248835 100.909 -18.647 -85.2599 -0.371378 38.1522 -21.8946 5.6235 0.225109 -8.64229 -5.37983 -0.320018 -0.0162402 -78.9682 -21.8664 94.3861 8.44366 -36.2082 -14.3053 1.55846 36.6678 -11.0996 -0.298107 0.0412803 3.26432 2.15563 0.0237318 -0.0246148 -7.75801 0.034963 -0.117134 
-0.93771 96.749 -17.1077 -88.2027 -89.6897 -88.2612 -171.179 3.46464 90.7746 -10.5566 8.11808 2.74006 64.1238 0.678349 0.307636 28.7808 4.97299e-006 6.74399e-006 168.48 2.65095 91.3515 -9.6726 -11.4012 -2.50474 64.3952 -0.626725 -0.314832 28.7808 1.41834e-005 2.4065e-005 -0.0183293 6.35508 -89.8925 14.1652 -0.024356 -0.0290777 2.49425 -0.0256077 -0.0279832 -20.0409 -0.0187351 -0.0350562 -0.02826 -0.0187448 -0.0350515 100.945 -18.6307 -85.1816 -0.293152 38.0759 -21.9699 5.66616 0.225219 -8.67027 -5.37983 -0.320018 -0.0162402 -78.9518 -21.8979 94.416 8.40729 -36.1826 -14.3881 1.51182 36.6658 -11.061 -0.270368 0.0402645 3.23594 2.29663 0.0254355 -0.0577697 -7.88168 0.0372619 -0.0338679 
-0.923988 96.8413 -17.1223 -88.8195 -89.7416 -88.7635 -171.207 3.15791 90.8572 -9.88248 8.21055 2.79335 63.8199 0.722861 0.34094 28.7808 4.97299e-006 6.74399e-006 168.483 2.88291 91.4585 -10.106 -11.5489 -2.58355 63.8275 -0.477375 -0.209779 28.7808 1.41834e-005 2.4065e-005 -0.0125152 6.35624 -90.0094 14.1612 -0.0331778 -0.0380023 2.49024 -0.0348278 -0.036503 -20.0449 -0.0200127 -0.0462139 -0.0322724 -0.0200229 -0.0462199 100.963 -18.5645 -85.1363 -0.224728 38.0265 -21.9373 5.66855 0.22547 -8.67188 -5.37983 -0.320018 -0.0162402 -78.9635 -21.9331 94.3953 8.36673 -36.1686 -14.3735 1.53974 36.5946 -11.1316 -0.203561 0.0401385 3.28615 2.27036 0.0373392 -0.154033 -7.824 0.054961 0.169411 
-0.914357 96.8167 -17.1316 -74.1813 -89.7974 -74.1859 -171.228 3.35336 90.787 -10.1576 8.16638 2.78637 63.8472 0.538958 0.231307 28.7808 4.97299e-006 6.74399e-006 168.471 2.82417 91.3996 -9.86965 -11.3652 -2.50489 63.956 -0.681401 -0.333228 28.7808 1.41834e-005 2.4065e-005 -0.0186408 6.35725 -89.9625 14.1552 -0.0402328 -0.0530492 2.48427 -0.0425465 -0.0512347 -20.0509 -0.0193872 -0.0626905 -0.0382288 -0.0193956 -0.0627025 101.012 -18.4365 -85.0305 -0.152699 37.9907 -21.9077 5.65991 0.22576 -8.6655 -5.37983 -0.320018 -0.0162402 -78.9686 -21.9843 94.3788 8.36198 -36.14 -14.3919 1.49104 36.5657 -11.0895 -0.297487 0.041123 3.2847 2.40261 0.0305276 -0.0926571 -7.89723 0.038995 0.126133 
-0.904299 96.7766 -17.1274 -57.8909 -89.8551 -57.9439 -171.227 3.50192 90.7268 -10.4413 8.23934 2.78845 64.0257 0.671579 0.304826 28.7808 4.97299e-006 6.74399e-006 168.46 2.6887 91.3206 -9.56134 -11.1114 -2.45545 64.3588 -0.13942 -0.0402753 28.7808 1.41834e-005 2.4065e-005 -0.0229007 6.3581 -89.9208 14.1517 -0.0450949 -0.0719107 2.48074 -0.0482246 -0.0698568 -20.0544 -0.0214562 -0.0821364 -0.0417488 -0.0214574 -0.0821426 101.074 -18.3116 -84.8853 -0.140556 37.9736 -21.8264 5.64784 0.22586 -8.68364 -5.37983 -0.320018 -0.0162402 -78.9957 -22.0256 94.3183 8.35627 -36.1378 -14.3373 1.5064 36.5542 -11.103 -0.288278 0.0434305 3.30283 2.43722 0.0538377 -0.0811228 -7.84063 0.0564947 0.191384 
-0.892229 96.8098 -17.119 -13.5875 -89.8264 -13.6004 -171.27 3.44861 90.7405 -10.11 8.25628 2.80378 63.8279 0.533259 0.227848 28.7808 4.97299e-006 6.74399e-006 168.461 2.89456 91.3836 -9.80918 -11.1738 -2.46445 64.0055 -0.576549 -0.274561 28.7808 1.41834e-005 2.4065e-005 -0.0238406 6.35909 -89.9763 14.1558 -0.0564912 -0.074523 2.48481 -0.0597183 -0.0719656 -20.0503 -0.0314946 -0.0880574 -0.0376847 -0.0314795 -0.0880501 101.161 -18.3409 -84.6587 -0.140718 37.9885 -21.9006 5.6483 0.22503 -8.68852 -5.37983 -0.320018 -0.0162402 -78.9613 -21.9973 94.3984 8.31622 -36.1465 -14.3809 1.55519 36.6263 -11.1153 -0.299774 0.047339 3.23682 2.53623 0.0655776 -0.237361 -7.87668 0.0873457 0.332834 
-0.876759 96.8209 -17.1008 3.70189 -89.8226 3.67678 -171.27 3.41538 90.7241 -10.0519 8.35519 2.80977 63.8206 0.602861 0.268174 28.7808 4.97299e-006 6.74399e-006 168.381 2.92234 91.3258 -9.84461 -11.1709 -2.37279 63.9783 -0.627998 -0.302958 28.7808 1.41834e-005 2.4065e-005 -0.0267254 6.35873 -89.9852 14.1563 -0.0654842 -0.0844264 2.48534 -0.0691398 -0.0814632 -20.0498 -0.037089 -0.100197 -0.0371519 -0.0370949 -0.100204 101.2 -18.1884 -84.5722 -0.27441 37.8125 -21.6348 5.797 0.21288 -8.77432 -5.37983 -0.320018 -0.0162402 -79.0083 -21.892 94.2848 8.36012 -36.1038 -14.1308 1.49215 36.4843 -11.0973 -0.194347 0.0562936 3.34207 2.49042 0.0628071 -0.323059 -7.81414 0.0935993 0.415417 
-0.881064 96.822 -17.076 18.6425 -89.8224 18.5983 -171.272 3.52633 90.7152 -10.2955 8.20513 2.78977 63.7705 0.260755 0.0670281 28.7808 4.97299e-006 6.74399e-006 168.445 2.81669 91.3387 -9.70224 -11.1388 -2.45964 63.9898 -0.582676 -0.279446 28.7808 1.41834e-005 2.4065e-005 -0.0345918 6.37059 -89.9678 14.1326 -0.0802935 -0.095405 2.46163 -0.084416 -0.0917788 -20.0735 -0.0479082 -0.115121 -0.0608662 -0.0479077 -0.115123 101.248 -18.2113 -84.448 -0.243626 37.9346 -21.7487 5.71629 0.220022 -8.71031 -5.37983 -0.320018 -0.0162402 -78.9436 -21.9281 94.431 8.35719 -36.175 -14.2012 1.51737 36.4291 -11.0711 -0.248649 0.0514591 3.27893 2.79822 0.0545377 -0.44148 -8.065 0.0980165 0.540796 
